<?xml version="1.0" encoding="UTF-8" standalone="no"?>
<!-- Created with Inkscape (http://www.inkscape.org/) -->

<svg
   xmlns:osb="http://www.openswatchbook.org/uri/2009/osb"
   xmlns:dc="http://purl.org/dc/elements/1.1/"
   xmlns:cc="http://creativecommons.org/ns#"
   xmlns:rdf="http://www.w3.org/1999/02/22-rdf-syntax-ns#"
   xmlns:svg="http://www.w3.org/2000/svg"
   xmlns="http://www.w3.org/2000/svg"
   xmlns:sodipodi="http://sodipodi.sourceforge.net/DTD/sodipodi-0.dtd"
   xmlns:inkscape="http://www.inkscape.org/namespaces/inkscape"
   id="svg9666"
   sodipodi:docname="racinghelmet.svg"
   viewBox="0 0 124.27 131.65"
   version="1.1"
   inkscape:version="0.92.5 (2060ec1f9f, 2020-04-08)">
  <defs
     id="defs9668">
    <linearGradient
       id="linearGradient2511"
       osb:paint="solid">
      <stop
         style="stop-color:#000000;stop-opacity:1;"
         offset="0"
         id="stop2509" />
    </linearGradient>
    <radialGradient
       id="radialGradient9446"
       gradientUnits="userSpaceOnUse"
       cy="-629.24"
       cx="-617.06"
       gradientTransform="matrix(1.500311,0.06238308,-0.05237564,1.2596223,1646.3216,963.24323)"
       r="58.412"
       inkscape:collect="always">
      <stop
         id="stop3594"
         style="stop-color:#ffa900"
         offset="0" />
      <stop
         id="stop3596"
         style="stop-color:#ff8c00"
         offset="1" />
    </radialGradient>
    <linearGradient
       id="linearGradient9452"
       y2="-615.33"
       gradientUnits="userSpaceOnUse"
       x2="-608.16"
       gradientTransform="matrix(0.92322184,0,0,0.92322184,1323.066,705.65167)"
       y1="-615.33"
       x1="-691.47"
       inkscape:collect="always">
      <stop
         id="stop3652"
         style="stop-color:#999"
         offset="0" />
      <stop
         id="stop3662"
         style="stop-color:#d0d0d0"
         offset=".13668" />
      <stop
         id="stop3660"
         style="stop-color:white"
         offset=".25" />
      <stop
         id="stop3658"
         style="stop-color:white;stop-opacity:.49804"
         offset=".40155" />
      <stop
         id="stop3654"
         style="stop-color:white"
         offset="1" />
    </linearGradient>
    <linearGradient
       id="linearGradient9456"
       y2="-1083.1"
       gradientUnits="userSpaceOnUse"
       x2="-266.97"
       gradientTransform="translate(-358.34)"
       y1="-1229"
       x1="-143.06"
       inkscape:collect="always">
      <stop
         id="stop4449"
         style="stop-color:white"
         offset="0" />
      <stop
         id="stop4451"
         style="stop-color:white;stop-opacity:0"
         offset="1" />
    </linearGradient>
    <filter
       id="filter4463"
       inkscape:collect="always"
       color-interpolation-filters="sRGB">
      <feGaussianBlur
         id="feGaussianBlur4465"
         stdDeviation="0.85012999"
         inkscape:collect="always" />
    </filter>
  </defs>
  <sodipodi:namedview
     id="base"
     bordercolor="#666666"
     inkscape:pageshadow="2"
     inkscape:window-y="0"
     fit-margin-left="5"
     pagecolor="#ffffff"
     fit-margin-top="5"
     inkscape:window-maximized="1"
     inkscape:zoom="9.3457338"
     inkscape:window-x="0"
     inkscape:window-height="2017"
     showgrid="false"
     borderopacity="1.0"
     inkscape:current-layer="layer4"
     inkscape:cx="17.941867"
     inkscape:cy="62.705373"
     fit-margin-right="5"
     fit-margin-bottom="5"
     inkscape:window-width="3840"
     inkscape:pageopacity="0.0"
     inkscape:document-units="px" />
  <g
     id="layer1"
     inkscape:label="Ebene 1"
     inkscape:groupmode="layer"
     transform="translate(-676.08,-65.355)"
     style="display:inline"
     sodipodi:insensitive="true">
    <path
       id="path3590"
       sodipodi:nodetypes="cassaaacaaaaaccac"
       style="fill:url(#radialGradient9446);stroke-width:0.67119002"
       inkscape:connector-curvature="0"
       d="m 697.23884,181.94451 c 0,0 32.90643,-2.91518 48.18406,-8.64828 15.73806,-5.90594 34.55487,-11.55454 43.24209,-25.94552 2.26345,-3.74954 4.22299,-30.33108 2.47098,-39.12367 -2.33406,-11.713607 -11.70958,-22.068727 -21.8271,-28.416171 -9.14496,-5.737801 -20.95858,-7.55827 -31.71104,-6.589273 -12.3895,1.11639 -25.48173,5.532888 -34.5938,14.002366 -7.50995,6.980376 -13.59026,27.592618 -13.59026,27.592618 0,0 13.43924,3.89337 20.17933,5.76559 8.63083,2.39736 19.69607,0.583 25.94552,7.00118 2.85692,2.93425 3.42857,7.88447 2.88276,11.94316 -0.6059,4.50617 -3.12204,9.002 -6.58927,11.94315 -5.33066,4.52201 -12.93383,5.53189 -19.76789,7.00119 -8.08046,1.73717 -24.70986,2.05914 -24.70986,2.05914 l -2.47099,-2.88283 c 0,0 -0.0955,7.10589 1.23546,10.29606 2.29507,5.50053 11.11961,14.00236 11.11961,14.00236 z" />
    <path
       id="path3648"
       sodipodi:nodetypes="caasccaaacac"
       style="opacity:0.4;fill:url(#linearGradient9452);stroke:#ffffff;stroke-width:0.92322183"
       inkscape:connector-curvature="0"
       d="m 689.83845,111.57469 c 0,0 14.52254,4.49375 21.98617,5.82412 8.15899,1.45433 16.48712,2.929 24.75282,2.3297 7.37302,-0.53467 15.51389,-4.03332 21.54923,-5.24173 1.277,-0.25572 3.49448,1.74724 3.49448,1.74724 l -1.74724,29.70285 c 0,0 -16.86365,7.58578 -25.62604,10.48331 -8.18113,2.70543 -16.51463,5.1832 -25.04411,6.40658 -5.57631,0.79979 -11.26122,0.80878 -16.88982,0.58239 -2.53851,-0.10209 -7.5717,-0.87362 -7.5717,-0.87362 0,0 -0.24641,-18.49129 0.72804,-27.66444 0.83456,-7.85695 4.36811,-23.29633 4.36811,-23.29633 z" />
    <path
       id="path4438"
       style="color:#000000;fill:url(#linearGradient9456);filter:url(#filter4463)"
       inkscape:connector-curvature="0"
       d="m -583.43,-1158 c -21.7,1.4247 -45.646,8.0848 -58.846,26.752 -0.96456,2.6202 -5.5607,6.8727 -3.1542,8.5916 38.108,14.691 82.865,13.941 120,-3.4375 3.7648,-1.0964 4.7121,-3.0062 1.5625,-5.5625 -14.224,-17.865 -36.723,-28.002 -59.562,-26.344 z"
       transform="matrix(0.67119,0,0,0.67119,1132.4183,852.96)" />
  </g>
  <g
     inkscape:groupmode="layer"
     id="layer2"
     inkscape:label="radio"
     style="display:none">
    <path
       id="path2474"
       sodipodi:nodetypes="cccccsscc"
       style="display:inline;fill:none;stroke:#000000;stroke-width:0.69125414;stroke-linecap:round;stroke-linejoin:round"
       d="m 71.015256,70.997105 35.164384,-1.139611 c 0.70444,0.08985 1.38623,0.205884 1.32237,1.242553 l 0.34605,22.911261 c -0.006,0.972878 -0.33781,2.177753 -1.51394,2.235735 -3.03198,0.231996 -35.545439,1.665938 -35.907959,1.676082 -1.392404,0.04203 -1.61486,-1.101916 -1.616919,-1.449894 L 68.630041,72.239675 c 0.216273,-0.445129 0.615871,-1.47455 2.385212,-1.24257 z"
       inkscape:connector-curvature="0" />
    <path
       id="path3255"
       style="display:inline;fill:none;stroke:#000000;stroke-width:0.43203381;stroke-linecap:round;stroke-linejoin:round"
       d="m 71.573454,72.349864 c 0.0721,0.36537 0.294545,25.579069 0.294545,25.579069"
       inkscape:connector-curvature="0" />
    <path
       id="path3259"
       style="display:inline;fill:none;stroke:#000000;stroke-width:0.43203381;stroke-linecap:round;stroke-linejoin:round"
       d="m 72.897885,72.349864 c 0.0721,0.362474 0.292488,25.423919 0.292488,25.423919"
       inkscape:connector-curvature="0" />
    <path
       id="path3261"
       style="display:inline;fill:none;stroke:#000000;stroke-width:0.43203381;stroke-linecap:round;stroke-linejoin:round"
       d="m 70.028625,72.400616 c 0.0721,0.365369 0.294547,25.528317 0.294547,25.528317"
       inkscape:connector-curvature="0" />
    <path
       id="path3263"
       style="display:inline;fill:none;stroke:#000000;stroke-width:0.43203381;stroke-linecap:round;stroke-linejoin:round"
       d="m 77.089515,72.193275 c 0.07414,0.36393 0.294548,25.477566 0.294548,25.477566"
       inkscape:connector-curvature="0" />
    <path
       id="path3265"
       style="display:inline;fill:none;stroke:#000000;stroke-width:0.43203381;stroke-linecap:round;stroke-linejoin:round"
       d="m 78.413948,72.142524 c 0.07414,0.359578 0.294548,25.165844 0.294548,25.165844"
       inkscape:connector-curvature="0" />
    <path
       id="path3267"
       style="display:inline;fill:none;stroke:#000000;stroke-width:0.43203381;stroke-linecap:round;stroke-linejoin:round"
       d="m 79.812532,72.154124 c 0.0721,0.363929 0.294545,25.464526 0.294545,25.464526"
       inkscape:connector-curvature="0" />
    <path
       id="path3269"
       style="display:inline;fill:none;stroke:#000000;stroke-width:0.43203381;stroke-linecap:round;stroke-linejoin:round"
       d="m 81.062812,72.090333 c 0.07414,0.358122 0.294547,25.113653 0.294547,25.113653"
       inkscape:connector-curvature="0" />
    <path
       id="path3271"
       style="display:inline;fill:none;stroke:#000000;stroke-width:0.43203381;stroke-linecap:round;stroke-linejoin:round"
       d="m 85.771446,71.9352 c 0.0721,0.356665 0.292485,25.010695 0.292485,25.010695"
       inkscape:connector-curvature="0" />
    <path
       id="path3273"
       style="display:inline;fill:none;stroke:#000000;stroke-width:0.43203381;stroke-linecap:round;stroke-linejoin:round"
       d="m 87.388364,71.882993 c 0.07414,0.358121 0.294548,25.010711 0.294548,25.010711"
       inkscape:connector-curvature="0" />
    <path
       id="path3275"
       style="display:inline;fill:none;stroke:#000000;stroke-width:0.43203381;stroke-linecap:round;stroke-linejoin:round"
       d="m 88.712795,71.904753 c 0.07414,0.356665 0.294547,24.93676 0.294547,24.93676"
       inkscape:connector-curvature="0" />
    <path
       id="path3277"
       style="display:inline;fill:none;stroke:#000000;stroke-width:0.43203381;stroke-linecap:round;stroke-linejoin:round"
       d="m 89.963076,71.780051 c 0.07414,0.356681 0.294548,24.95852 0.294548,24.95852"
       inkscape:connector-curvature="0" />
    <path
       id="path3279"
       style="display:inline;fill:none;stroke:#000000;stroke-width:0.43203381;stroke-linecap:round;stroke-linejoin:round"
       d="m 94.892104,71.675669 c 0.07414,0.359561 0.294548,25.115093 0.294548,25.115093"
       inkscape:connector-curvature="0" />
    <path
       id="path3281"
       style="display:inline;fill:none;stroke:#000000;stroke-width:0.43203381;stroke-linecap:round;stroke-linejoin:round"
       d="m 95.92199,71.691604 c 0.07414,0.353786 0.294547,24.787435 0.294547,24.787435"
       inkscape:connector-curvature="0" />
    <path
       id="path3283"
       style="display:inline;fill:none;stroke:#000000;stroke-width:0.43203381;stroke-linecap:round;stroke-linejoin:round"
       d="m 97.24642,71.616214 c 0.07414,0.355225 0.294548,24.915016 0.294548,24.915016"
       inkscape:connector-curvature="0" />
    <path
       id="path3285"
       style="display:inline;fill:none;stroke:#000000;stroke-width:0.43203381;stroke-linecap:round;stroke-linejoin:round"
       d="m 98.645004,71.627814 c 0.0721,0.353769 0.292488,24.768571 0.292488,24.768571"
       inkscape:connector-curvature="0" />
    <path
       id="path3287"
       style="display:inline;fill:none;stroke:#000000;stroke-width:0.43203381;stroke-linecap:round;stroke-linejoin:round"
       d="m 103.05703,71.516167 c 0.0741,0.355226 0.29455,24.85993 0.29455,24.85993"
       inkscape:connector-curvature="0" />
    <path
       id="path3289"
       style="display:inline;fill:none;stroke:#000000;stroke-width:0.43203381;stroke-linecap:round;stroke-linejoin:round"
       d="m 104.52976,71.49732 c 0.0721,0.350873 0.29455,24.568495 0.29455,24.568495"
       inkscape:connector-curvature="0" />
    <path
       id="path3291"
       style="display:inline;fill:none;stroke:#000000;stroke-width:0.43203381;stroke-linecap:round;stroke-linejoin:round"
       d="m 105.8542,71.39729 c 0.0721,0.350874 0.29248,24.513392 0.29248,24.513392"
       inkscape:connector-curvature="0" />
    <path
       id="path2468"
       sodipodi:nodetypes="cc"
       style="display:inline;fill:none;stroke:#000000;stroke-width:0.69125414;stroke-linecap:round;stroke-linejoin:round"
       d="m 72.986455,73.2778 4.055687,-0.07248"
       inkscape:connector-curvature="0" />
    <path
       id="path3240"
       sodipodi:nodetypes="cc"
       style="display:inline;fill:none;stroke:#000000;stroke-width:0.69125414;stroke-linecap:round;stroke-linejoin:round"
       d="m 82.193626,72.948669 3.275033,-0.07397"
       inkscape:connector-curvature="0" />
    <path
       id="path3242"
       sodipodi:nodetypes="cc"
       style="display:inline;fill:none;stroke:#000000;stroke-width:0.69125414;stroke-linecap:round;stroke-linejoin:round"
       d="m 90.566589,72.765985 4.057746,-0.07397"
       inkscape:connector-curvature="0" />
    <path
       id="path3244"
       sodipodi:nodetypes="cc"
       style="display:inline;fill:none;stroke:#000000;stroke-width:0.69125414;stroke-linecap:round;stroke-linejoin:round"
       d="m 90.828178,93.416855 3.639615,-0.07397"
       inkscape:connector-curvature="0" />
    <path
       id="path3246"
       sodipodi:nodetypes="cc"
       style="display:inline;fill:none;stroke:#000000;stroke-width:0.69125414;stroke-linecap:round;stroke-linejoin:round"
       d="m 73.557012,94.221545 3.225598,-0.07248"
       inkscape:connector-curvature="0" />
    <path
       id="path3248"
       sodipodi:nodetypes="cc"
       style="display:inline;fill:none;stroke:#000000;stroke-width:0.69125414;stroke-linecap:round;stroke-linejoin:round"
       d="m 81.829046,93.856175 3.84971,-0.07397"
       inkscape:connector-curvature="0" />
    <path
       id="path3250"
       sodipodi:nodetypes="cc"
       style="display:inline;fill:none;stroke:#000000;stroke-width:0.69125414;stroke-linecap:round;stroke-linejoin:round"
       d="m 99.670771,93.086269 3.225599,-0.07248"
       inkscape:connector-curvature="0" />
    <path
       id="path3252"
       sodipodi:nodetypes="cc"
       style="display:inline;fill:none;stroke:#000000;stroke-width:0.69125414;stroke-linecap:round;stroke-linejoin:round"
       d="M 98.941611,72.72829 102.2702,72.65581"
       inkscape:connector-curvature="0" />
  </g>
  <g
     inkscape:groupmode="layer"
     id="layer4"
     inkscape:label="mittari"
     style="display:inline">
    <path
       id="path3297"
       sodipodi:nodetypes="csccccccc"
       style="display:inline;fill:#cacaca;fill-opacity:0.38486841;stroke:#7e7e7e;stroke-width:1.52306497;stroke-linecap:round;stroke-linejoin:round;stroke-miterlimit:4;stroke-dasharray:none;stroke-opacity:1"
       d="m 76.859416,90.790852 c 0,0 40.703514,0.134951 41.399224,0.04105 1.13236,-0.15143 2.30334,0.899895 2.24604,2.34617 l -0.10013,19.375708 c -0.50886,1.4285 -1.46614,1.50893 -2.24085,1.55733 l -41.227538,1.03331 c -1.443521,-0.0385 -1.705684,-2.35419 -1.771024,-3.24917 L 74.994743,93.203977 c -0.08387,-1.845519 0.855646,-2.28845 1.864673,-2.413123 z"
       inkscape:connector-curvature="0" />
    <path
       id="path3369"
       sodipodi:nodetypes="csscsccss"
       style="display:inline;fill:#cacaca;fill-opacity:0.40000001;stroke:#7e7e7e;stroke-width:1.44099998;stroke-linecap:round;stroke-linejoin:round;stroke-miterlimit:4;stroke-dasharray:none;stroke-opacity:1"
       d="m 78.863602,110.70402 c 0,0 -4.52e-4,-10.25824 -0.182239,-14.491736 -0.03828,-0.857645 0.571009,-1.658382 1.913236,-1.675619 10.5252,-0.140247 11.556085,-0.07806 32.960171,-0.231312 1.35711,0.02542 1.28926,0.942272 1.28795,1.716687 l -0.0161,14.03865 c 0.0388,1.00565 -0.45291,1.28397 -1.12028,1.31989 l -33.209108,0.71564 c -1.673441,0.0365 -1.378099,-0.83289 -1.63354,-1.3922 z"
       inkscape:connector-curvature="0" />
    <path
       id="path2455"
       sodipodi:nodetypes="csscsccss"
       style="display:inline;fill:#cbcbcb;fill-opacity:0.63921571;stroke:#7e7e7e;stroke-width:1.44099998;stroke-miterlimit:4;stroke-dasharray:none;stroke-opacity:1"
       d="m 83.839439,108.95952 c 0,0 0.0024,-6.68414 -0.130238,-9.44287 -0.02808,-0.56117 0.418618,-1.08081 1.402429,-1.0874 7.712307,-0.05 8.468763,-0.008 24.15305,-0.0269 0.99374,0.021 0.94271,0.61803 0.94347,1.1237 l -0.0136,9.15013 c 0.0261,0.65481 -0.33247,0.8332 -0.82188,0.8551 l -24.335492,0.3441 c -1.22604,0.0177 -1.009352,-0.5471 -1.19776,-0.91587 z"
       inkscape:connector-curvature="0" />
    <g
       id="g2461"
       style="display:inline;fill:#afafaf;fill-opacity:0.40000001;stroke:#7e7e7e;stroke-width:1.41869998;stroke-linecap:round;stroke-linejoin:round;stroke-opacity:1"
       transform="matrix(0.24720839,0.01136265,4.1040349e-4,0.27575023,-63.502402,-2.917369)">
      <path
         id="path2459"
         sodipodi:rx="12.626906"
         sodipodi:ry="8.8388348"
         style="fill:#afafaf;fill-opacity:0.40000001;stroke:#7e7e7e;stroke-width:1.41869998;stroke-linecap:round;stroke-linejoin:round;stroke-opacity:1"
         sodipodi:type="arc"
         d="m 633.22215,416.95414 a 12.626906,8.8388348 0 0 1 5.09476,-8.30942 12.626906,8.8388348 0 0 1 12.8637,-0.82609 12.626906,8.8388348 0 0 1 7.16959,7.52181"
         sodipodi:open="true"
         transform="translate(-2.2728,-34.85)"
         sodipodi:cy="415.79489"
         sodipodi:cx="645.73999"
         sodipodi:end="6.2317475"
         sodipodi:start="3.0100601" />
    </g>
    <path
       id="path3234"
       sodipodi:nodetypes="ccccc"
       style="display:inline;fill:#bf7600;fill-opacity:1;fill-rule:evenodd;stroke:#7e7e7e;stroke-width:0.97000003;stroke-miterlimit:4;stroke-dasharray:none;stroke-opacity:1"
       d="m 95.60774,106.97226 8.72262,-10.476398 c 1.21951,-1.098274 0.76601,-0.189238 0.64336,0.439019 l -6.565776,11.374679 c -0.532479,-0.68303 -1.566523,-1.2066 -2.800204,-1.3373 z"
       inkscape:connector-curvature="0" />
  </g>
  <g
     inkscape:groupmode="layer"
     id="layer3"
     inkscape:label="salamat"
     style="display:none">
    <path
       id="path3387"
       style="display:inline;fill:#5e4e2d;fill-opacity:1;fill-rule:evenodd;stroke:#a72727;stroke-width:1;stroke-miterlimit:4;stroke-dasharray:none;stroke-opacity:1"
       d="m 83.123921,59.22772 23.636319,-22.937287 1.9324,-0.41037 -4.05933,7.609045 28.91662,-23.477508 0.20078,0.58828 -32.63911,26.988204 3.45352,-6.194657 -1.40392,0.738933 z"
       inkscape:connector-curvature="0" />
    <path
       id="path3389"
       sodipodi:nodetypes="ccccccccc"
       style="display:inline;fill:#5e4e2d;fill-opacity:1;fill-rule:evenodd;stroke:#a72727;stroke-width:1.07299995;stroke-miterlimit:4;stroke-dasharray:none;stroke-opacity:1"
       d="m 83.593666,62.49998 34.712954,-13.9186 -9.59248,8.649326 35.86044,-6.057046 -0.27972,1.155942 -41.60422,8.303988 5.77725,-5.607184 0.0618,-0.42271 z"
       inkscape:connector-curvature="0" />
    <path
       id="path2466"
       sodipodi:nodetypes="cccccccc"
       style="display:inline;fill:#5e4e2d;fill-opacity:1;fill-rule:evenodd;stroke:#a72727;stroke-width:1.37300003;stroke-miterlimit:4;stroke-dasharray:none;stroke-opacity:1"
       d="m 82.78158,67.28205 24.81733,3.06666 -6.12036,3.83116 19.77833,6.83629 -0.63316,0.57401 -26.59926,-7.77245 6.34119,-1.50307 z"
       inkscape:connector-curvature="0" />
  </g>
  <metadata
     id="metadata46">
    <rdf:RDF>
      <cc:Work>
        <dc:format>image/svg+xml</dc:format>
        <dc:type
           rdf:resource="http://purl.org/dc/dcmitype/StillImage" />
        <cc:license
           rdf:resource="http://creativecommons.org/licenses/publicdomain/" />
        <dc:publisher>
          <cc:Agent
             rdf:about="http://openclipart.org/">
            <dc:title>Openclipart</dc:title>
          </cc:Agent>
        </dc:publisher>
        <dc:title>Racing Helmet</dc:title>
        <dc:date>2012-09-01T10:39:30</dc:date>
        <dc:description />
        <dc:source>https://openclipart.org/detail/172011/racing-helmet-by-gnokii-172011</dc:source>
        <dc:creator>
          <cc:Agent>
            <dc:title>gnokii</dc:title>
          </cc:Agent>
        </dc:creator>
        <dc:subject>
          <rdf:Bag>
            <rdf:li>bike</rdf:li>
            <rdf:li>helmet</rdf:li>
            <rdf:li>motorcycle</rdf:li>
            <rdf:li>protection</rdf:li>
            <rdf:li>race</rdf:li>
            <rdf:li>racing</rdf:li>
          </rdf:Bag>
        </dc:subject>
      </cc:Work>
      <cc:License
         rdf:about="http://creativecommons.org/licenses/publicdomain/">
        <cc:permits
           rdf:resource="http://creativecommons.org/ns#Reproduction" />
        <cc:permits
           rdf:resource="http://creativecommons.org/ns#Distribution" />
        <cc:permits
           rdf:resource="http://creativecommons.org/ns#DerivativeWorks" />
      </cc:License>
    </rdf:RDF>
  </metadata>
</svg>
